<svg xmlns="http://www.w3.org/2000/svg" viewBox="0 0 32 32">
    <path id="xbox" d="M24.20576,7.35917a11.72759,11.72759,0,0,1,1.20611,15.986c.45365-4.2478-4.61861-10.42076-6.18176-12.31783.04995-.08177.08915-.16034.14177-.24283A10.17477,10.17477,0,0,1,23.0911,7.727,5.29867,5.29867,0,0,1,24.20576,7.35917Zm-11.43383,3.663c-.04959-.08088-.08861-.15874-.14087-.24051A9.10435,9.10435,0,0,0,7.79157,7.361a11.72759,11.72759,0,0,0-1.22229,15.96C6.12328,19.07706,11.20549,12.91387,12.77193,11.02213ZM14.8241,7.19189c.44192.22327.83949.45116,1.184.66448A11.90224,11.90224,0,0,1,22.28726,5.9081a11.77844,11.77844,0,0,0-6.288-1.77265,12.05414,12.05414,0,0,0-6.28042,1.773A11.4971,11.4971,0,0,1,14.8241,7.19189ZM24.01155,22.911a7.32589,7.32589,0,0,0-.34921-.8833c-.02471-.05173-.25389-.4757-.33935-.64225-1.02056-1.989-3.89343-4.60688-4.34112-5.02249-.5604-.52049-1.12017-1.02106-1.65425-1.49427l-.00027.00054c-.42414-.36015-.85717-.72918-1.32522-1.10462-.46467.37277-.89787.73807-1.31926,1.09591l-.00009-.00018-.00115.00089c-.7594.6698-1.57053,1.39294-2.36175,2.15269-2.42316,2.32691-4.65532,4.998-4.62616,7.5364a12.06431,12.06431,0,0,0,16.5979.01262A5.12424,5.12424,0,0,0,24.01155,22.911Z" fill="#262626"/>
</svg>
