<svg id="Layer_1" data-name="Layer 1" xmlns="http://www.w3.org/2000/svg" viewBox="0 0 305.04 87.69"><title>the-row-new</title><path d="M24.49,103.35h8.39l-2.26,3s-.18-.54-1.07-.54H24.48s-.19,3,3.45,4.06a8.32,8.32,0,0,0,6.57-.75l-1.17,3H27.62a6.61,6.61,0,0,1-6.05-4.36s-1.35-2.05.65-7.1l6.32-4,4.54,3-2,1.52a3.52,3.52,0,0,0-3.9-1.65c-2.52.73-2.65,3.9-2.65,3.9" transform="translate(-21.12 -28.95)" fill="#f05123"/><path d="M37.77,96.79l-3.46,2.34a.86.86,0,0,1,.47.75c0,.72,0,12.33,0,12.33l1.82-1.11,5.91,3.39,1.89-2.07-5.47-3.14-.91.5s-.26.14-.26-.17Z" transform="translate(-21.12 -28.95)" fill="#f05123"/><path d="M64.72,109.93a6.92,6.92,0,0,1-3.21-2.43,8.45,8.45,0,0,1-1.21-2.35c-.64-1.94-.56-4.36,1.46-5.56a4.36,4.36,0,0,1,3.56-.44,7.25,7.25,0,0,1,5.11,7.21,4.19,4.19,0,0,1-5.71,3.57m8.64-6.21a8.08,8.08,0,0,0-8.08-6.91,8,8,0,0,0-7.84,8.54,7.25,7.25,0,0,0,.49,2.09.72.72,0,0,0,.09.2,8,8,0,0,0,6.12,4.74,7.9,7.9,0,0,0,9.22-8.66" transform="translate(-21.12 -28.95)" fill="#f05123"/><path d="M78.39,104l-1.45,1.13v-3.69l0-1.82c.89-1.19,1.67-1.09,1.67-1.09a3.4,3.4,0,0,1,2.65,2.49c.31.86.42,3-.7,3.57s-2.19-.59-2.19-.59m1.87,1.84s-.37-.55.33-.52a2.91,2.91,0,0,0,3-.72c2.07-1.77-.05-5.23.1-5-.17-.31-1.72-2.58-3.42-2.8a2.21,2.21,0,0,0-1,.19l-2.34,1.28,0-1.3-3.32,2.11a1.14,1.14,0,0,1,.44.8v12.35l2.9-1.36v-4.37l7.37,7.59,2.28-1.79Z" transform="translate(-21.12 -28.95)" fill="#f05123"/><path d="M93.81,107.61a3.45,3.45,0,0,1-.13.77,3.17,3.17,0,0,1-3.62,2,3.19,3.19,0,1,1,1.8-6,3.34,3.34,0,0,1,2,3.18v.06m3.18,0v-7.39a8.38,8.38,0,0,0-9.14-2.52l-1.12,2.4a6.65,6.65,0,0,1,7.24.81v3.2a5.06,5.06,0,0,0-4.43-1.79c-2.53.24-5,2.4-4.76,5.09.29,3.41,2.46,4.65,4.86,5.26a1.74,1.74,0,0,0,1,0L94,111.08v1.69l3-1.52v-3.67h0Z" transform="translate(-21.12 -28.95)" fill="#f05123"/><path d="M44.59,112.2v-9.42s0-.46-.26-.47l3.09-1.71.06,8s.92,3.51,4.27,1.28,2.75-9.29-.61-11.23c0,0-3.93-2.46-6,1.65l-2.18,0S44.51,95.9,51,97s7.36,9.93,3.44,13.45a6.09,6.09,0,0,1-7.86.69Z" transform="translate(-21.12 -28.95)" fill="#f05123"/><path d="M99.32,112.2v-9.42s0-.46-.26-.47l3.09-1.71.06,8s.92,3.51,4.27,1.28,2.75-9.29-.61-11.23c0,0-3.93-2.46-6,1.65l-2.18,0s1.56-4.34,8-3.27,7.36,9.93,3.44,13.45a6.09,6.09,0,0,1-7.86.69Z" transform="translate(-21.12 -28.95)" fill="#f05123"/><path d="M119.45,109.93a6.92,6.92,0,0,1-3.21-2.43h0a8.42,8.42,0,0,1-1.2-2.35c-.64-1.94-.56-4.36,1.46-5.56a4.36,4.36,0,0,1,3.56-.44,7.25,7.25,0,0,1,5.11,7.21,4.19,4.19,0,0,1-5.71,3.57m8.64-6.21A8.08,8.08,0,0,0,120,96.81a8,8,0,0,0-7.84,8.54,7,7,0,0,0,.52,2.16h0a8,8,0,0,0,15.39-3.79" transform="translate(-21.12 -28.95)" fill="#f05123"/><path d="M226.45,107.43c.06-2.41-.51-3.17-2.54-4.54l-.08,0a4.1,4.1,0,0,1-1.41-1.29,2.35,2.35,0,0,1,.09-2h0a.73.73,0,0,1,.43-.16h.15a2.54,2.54,0,0,1,1.07.26h0a2.74,2.74,0,0,1,1.1.86l.34.41v-3.5l-.13-.06-.26-.11a4.94,4.94,0,0,0-1.94-.46h-.11a3.58,3.58,0,0,0-2.84,1.26,5.38,5.38,0,0,0-.85,4.55,5.26,5.26,0,0,0,1.46,2.66v0l.15.15.15.15a6.14,6.14,0,0,0,.77.67l.32.22.29.2a2.74,2.74,0,0,1,1,1.87,1.44,1.44,0,0,1-.38,1.07,1.25,1.25,0,0,1-.92.35,2.81,2.81,0,0,1-1.17-.3,4,4,0,0,1-1.89-1.72l-.5-.85.75,5,.61.21c.2.06.39.1.59.14a6,6,0,0,0,1.48.19c2.6,0,4.21-1.93,4.29-5.16" transform="translate(-21.12 -28.95)" fill="#f05123"/><path d="M227.27,97.56a4.94,4.94,0,0,1,.59,2.66v8.93a5.77,5.77,0,0,1-.5,2.64,2.4,2.4,0,0,0-.11.23l-.12.27h4.63l-.12-.27a1.45,1.45,0,0,1-.09-.22v0a5.51,5.51,0,0,1-.47-2.63v-8.93a4.69,4.69,0,0,1,.64-2.65l.09-.17.2-.34h-5l.17.28a2.53,2.53,0,0,0,.13.22" transform="translate(-21.12 -28.95)" fill="#f05123"/><path d="M232.57,111.89l-.07.11-.17.29h7.56l1-5-.47.54c-.55.64-1.15,1-2.87,1.09a6.23,6.23,0,0,1-1.13,0v-8.66a1.48,1.48,0,0,1,0-.21v-.22a5.41,5.41,0,0,1,.53-2.22,1.58,1.58,0,0,1,.11-.23l.16-.28H232.5l.11.26,0,.11.06.14a5.68,5.68,0,0,1,.49,2.63v9a4.67,4.67,0,0,1-.59,2.63l-.06.11" transform="translate(-21.12 -28.95)" fill="#f05123"/><path d="M248.79,97.06H245l.19.29a.93.93,0,0,1,.11.19,2.71,2.71,0,0,1,.2,2.31l-1.21,6.25-1.77-9h-4.23l.22.32a1.18,1.18,0,0,0,.13.18,7.4,7.4,0,0,1,1.06,2.38c0,.15,1,4.06,1.88,7.92.56,2.3,1,4.14,1.35,5.46.67,2.59.72,2.61.85,2.66l.2.07,4.72-18.76Z" transform="translate(-21.12 -28.95)" fill="#f05123"/><path d="M249.11,97.56h0a5.49,5.49,0,0,1,.52,2.65v8.93a4.73,4.73,0,0,1-.62,2.63v0a.6.6,0,0,1-.06.11l-.06.09-.16.29h7.56l1-4.82-.44.41a4.11,4.11,0,0,1-3,1.11,5.46,5.46,0,0,1-.8,0l-.22,0v-3h.67a1.79,1.79,0,0,1,1.07.27l0,0,.42.36,0,0,.51.4v-4.29h-2.76V100.3h1.57l.22,0h.22c.34.05.54.17.93.69l.16.22.38.65V97.06h-7.49l.17.28a1.51,1.51,0,0,1,.11.22" transform="translate(-21.12 -28.95)" fill="#f05123"/><path d="M280.38,97.56h0a5.61,5.61,0,0,1,.51,2.65v8.93a4.67,4.67,0,0,1-.62,2.63v0l-.07.12-.06.08-.17.29h7.58l1-4.82-.44.41a4.13,4.13,0,0,1-3,1.11,5.63,5.63,0,0,1-.8,0l-.21,0v-3h.66a1.82,1.82,0,0,1,1.08.27l0,0,.42.35,0,0,.5.39v-4.29h-2.76V100.3h1.58l.21,0h.23c.33.05.54.17.92.69l.17.22.37.61V97.06H280.1l.18.29a1,1,0,0,1,.1.21" transform="translate(-21.12 -28.95)" fill="#f05123"/><path d="M261.53,100h0a.78.78,0,0,1,.22,0h0a1.27,1.27,0,0,1,1,.35,2.06,2.06,0,0,1,.34,1.61,2.93,2.93,0,0,1-.39,1.13,1.27,1.27,0,0,1-.76.61h0a.78.78,0,0,1-.22,0l-.16,0h-.09Zm.77,12a.83.83,0,0,1-.08-.12.61.61,0,0,1-.07-.1,4.2,4.2,0,0,1-.62-2.63v-4.31a29.48,29.48,0,0,0,1.4,4.42c1,2.46,1.28,3,2.09,3h3.13l-.42-.62-.22-.35a21.64,21.64,0,0,1-1.12-2.08c-.4-.84-.73-1.66-1-2.42l-.3-.85-.6-1.65.21-.13a3.38,3.38,0,0,0,1.43-2.82,4.28,4.28,0,0,0-.79-3.3,3.14,3.14,0,0,0-2.26-1c-.21,0-.42,0-.62,0H257.6l.12.26.07.16,0,.09a5.59,5.59,0,0,1,.48,2.65v8.93a4.38,4.38,0,0,1-.69,2.63.61.61,0,0,0-.07.1l-.08.12-.16.29h5.16Z" transform="translate(-21.12 -28.95)" fill="#f05123"/><path d="M271.64,112l-.21.3H279l1-4.19-.47.45c-.54.51-1.16.81-2.88.9a9,9,0,0,1-1.14,0V99.68a1,1,0,0,1,0-.17c0-.06,0-.12,0-.18a3.7,3.7,0,0,1,.51-1.81h0a1,1,0,0,1,.1-.17l.23-.3H271.6l.15.27c0,.07.07.14.11.2a4,4,0,0,1,.48,2.15l0,10.06a3.29,3.29,0,0,1-.58,2.14l-.14.18" transform="translate(-21.12 -28.95)" fill="#f05123"/><path d="M294.33,112.62a7.34,7.34,0,0,0,1.95-.28,4.54,4.54,0,0,0,1.39-.6l.09,0v-8h-3.45l.11.26c0,.1.07.18.1.24a6.1,6.1,0,0,1,.5,2.28h0v3.18h0l-.1,0a1.94,1.94,0,0,1-1.57-.63c-.93-.92-1.43-2.8-1.38-5.15.05-2.8,1-4.77,2.25-4.77a1.72,1.72,0,0,1,1,.35h0a4.47,4.47,0,0,1,.85.76l.17.15.4.51V97.27l-.14,0-.22-.07-.18-.07a6.32,6.32,0,0,0-2-.35,4.09,4.09,0,0,0-3,1.23c-1.37,1.37-2.11,3.85-2.07,7,.06,4.88,2,7.68,5.32,7.68" transform="translate(-21.12 -28.95)" fill="#f05123"/><path d="M302.91,103l.56,2.86H302.3Zm-1.07,9a.2.2,0,0,1,0-.08l-.05-.11a3.42,3.42,0,0,1-.22-2.2l.06-.34v-.09l.06-.26H304l0,.25.12.82v0a3.47,3.47,0,0,1-.34,1.77l0,.09-.06.14-.11.26h5.25l-.18-.29a.67.67,0,0,1-.06-.12.75.75,0,0,1-.07-.12,7.67,7.67,0,0,1-1-2.65l-2.69-12h-3.52l.07.24s0,.07,0,.1,0,.09,0,.15a5,5,0,0,1-.1,2.63l-2.17,8.93a8.57,8.57,0,0,1-1.08,2.66,1.94,1.94,0,0,0-.15.24l-.16.28H302Z" transform="translate(-21.12 -28.95)" fill="#f05123"/><path d="M313.19,112.75h0a5.63,5.63,0,0,0,.58,0,8.94,8.94,0,0,0,2.23-.65l.1,0,.72-4.59-.49.76a3,3,0,0,1-1.41,1.27,2.77,2.77,0,0,1-1.05.23,2.08,2.08,0,0,1-1.53-.68c-1-1-1.46-2.85-1.38-5.18.11-2.82,1-4.64,2.27-4.64a2.21,2.21,0,0,1,1.35.59,1.37,1.37,0,0,1,.18.16l.17.15.36.42.34.4V97.2l-.44-.15-.46-.12-.64-.16a6,6,0,0,0-1-.09,4.1,4.1,0,0,0-3.51,1.88,10.17,10.17,0,0,0-1.5,5,13.68,13.68,0,0,0,.49,4.87c.85,2.83,2.41,4.27,4.63,4.27" transform="translate(-21.12 -28.95)" fill="#f05123"/><path d="M323.53,111.89l-.06-.11a4.79,4.79,0,0,1-.61-2.63v-2.59l3.31-9.5h-3.68l.07.24,0,.1a.57.57,0,0,0,0,.14,4.3,4.3,0,0,1-.18,2.63l-.62,2.14-1.37-5.25H316l.37.52.2.3a9.24,9.24,0,0,1,1.07,2.39l2.06,6.33v2.55a4.8,4.8,0,0,1-.65,2.63.2.2,0,0,0-.05.09l-.09.13-.16.29h5.07l-.17-.29-.07-.11" transform="translate(-21.12 -28.95)" fill="#f05123"/><path d="M154.07,95.38a4.75,4.75,0,0,1,.64,0c.43,0,.71.44.71,1v2c1.29-.09,1.67.73,1.71,1.09-1.15-1.08-2.95-.59-3,.08a1,1,0,0,1,.93.35,1.36,1.36,0,0,1,.31,1.08c0,2.13,0,1.88,0,2.3,0,.66-.89.77-1.29.86v.69h6.26v-.76a3.08,3.08,0,0,1-.72-.12c-.51-.18-.52-.54-.52-1v-2.08a1.71,1.71,0,0,1,.19-.84.94.94,0,0,1,.87-.46,1,1,0,0,0-1-.72V96.48a1,1,0,0,1,.53-1,2.15,2.15,0,0,1,.76-.11v-.81h-6.37Z" transform="translate(-21.12 -28.95)" fill="#f05123"/><path d="M152.67,100.35a.92.92,0,0,0-.22,1.83c-.13.39-.45,1.06-1.85,1.1a2,2,0,0,1-2.36-1.93c0-1.24.22-1.87,1.18-1.73,0-.27-.2-.77-1.16-.72a3.76,3.76,0,0,1,.45-2.44,1.66,1.66,0,0,1,1.11-.46c.46,0,1.79-.13,1.79,1.59h1.55V94.72a20.39,20.39,0,0,1-2.6-.18c-.48,0-5.51-.73-6,3.93.39,0,1.6.08,1.78,1.09-.29-.55-2.22-1.18-2.83,0,.39,0,.83-.09,1.07.64a7.24,7.24,0,0,0,1.23,3.22,5.75,5.75,0,0,0,6.63.91,2.74,2.74,0,0,0,1.46-2.1c.1-.7.06-2-1.19-1.89" transform="translate(-21.12 -28.95)" fill="#f05123"/><path d="M174.7,99.56c-.28-.55-2.21-1.18-2.82,0,.39,0,.83-.09,1.07.64a7.32,7.32,0,0,0,1.22,3.22,5.75,5.75,0,0,0,6.63.91,2.74,2.74,0,0,0,1.46-2.1c.1-.7.07-2-1.18-1.89a.92.92,0,0,0-.22,1.83c-.13.39-.45,1.06-1.85,1.1a2,2,0,0,1-2.36-1.93c-.05-1.24.22-1.87,1.18-1.73,0-.27-.2-.77-1.16-.72a3.8,3.8,0,0,1,.44-2.44,1.7,1.7,0,0,1,1.12-.46c.46,0,1.79-.14,1.79,1.59h1.55V94.72a20.39,20.39,0,0,1-2.6-.18c-.48,0-5.52-.73-6,3.93.39,0,1.6.08,1.77,1.09" transform="translate(-21.12 -28.95)" fill="#f05123"/><path d="M196.36,101.83a1.32,1.32,0,0,0-2.18.12,1.65,1.65,0,0,0,.23,2c.73.9,3.55,1.27,5.63.7s2.23-1.54,2.28-2.46-.57-1.93-1.87-2.87c-.24-.2-.79-.61.14-.91-.09-.29-.73-.57-1.69,0-.52-.23-1.22-.55-1.09-1.44s.91-.92,1.4-.92c.15,0,1.35,0,1.32,1.69h1.6v-3a7.7,7.7,0,0,1-2.24-.08c-1.39-.21-5.36-.59-5.57,2.22a3,3,0,0,0,1.43,2.9,1.88,1.88,0,0,1,2.23-.12c-.44-.08-2.64,0-1.65,1.44a1.51,1.51,0,0,1,1.8-.17,1.39,1.39,0,0,1,.46,1.6c-.32,1-1.8.94-2.38.53a1,1,0,0,0,.15-1.23" transform="translate(-21.12 -28.95)" fill="#f05123"/><path d="M166.16,96.46c0-.55.47-.5.63-.5s1.7,0,1.63,1.47-1.24,1.33-1.71,1.33-.55-.3-.55-.5v-1.8m-3.42-.37v2.25c.49,0,1.41.2,1.58,1-.44-.35-2.11-.84-2.78.25a1.23,1.23,0,0,1,1.14.76,1,1,0,0,1,.09.49v2.23c0,.27.17.86-1.29,1v.76h5.88v-.67c-.4-.09-1.23.1-1.23-1.28a15.45,15.45,0,0,1,0-2c0-.22.25-.54.9-.6s1.46.14,1.51,1.16.16,3.34.16,3.34h4.62v-.66c-.47-.07-1.24-.17-1.24-1.09,0-1.16-.23-3.4-2.13-3.72A2.12,2.12,0,0,0,172.2,97c0-1.61-1.24-2.45-3.33-2.45h-7.42v.76c.45,0,1.29.09,1.29.76" transform="translate(-21.12 -28.95)" fill="#f05123"/><path d="M183.51,95.85v2.53c.65,0,1.36,0,1.74,1-.14-.45-2.62-1.1-2.89.21.57,0,1.07.09,1.15.83s.05,3.47,2.17,4.18a9.09,9.09,0,0,0,4.35.26c1.95-.32,2.5-1.1,2.78-2a7,7,0,0,0,.23-2.07c0-.54.26-1.37.88-1.25,0-.24-.09-.69-.88-.75V96c0-.18,0-.59.94-.71v-.72h-3.8v.72c.41,0,1.09.14,1.09.83v2.68c-.39,0-.92.17-.92.74.3.06.77.06.86.65s.5,2.74-1.36,2.86-2.5-.3-2.62-1.58.15-2.14,1.15-1.87c0-.36-.35-.79-1.09-.79V95.94c0-.21.17-.68,1.18-.68v-.73h-6.22v.7c.5,0,1.26,0,1.26.62" transform="translate(-21.12 -28.95)" fill="#f05123"/><path d="M154.07,107a4.75,4.75,0,0,1,.64,0c.43,0,.71.44.71,1v2c1.29-.09,1.67.73,1.71,1.09-1.15-1.08-2.95-.59-3,.08a1,1,0,0,1,.93.35,1.36,1.36,0,0,1,.31,1.08c0,2.13,0,1.87,0,2.3,0,.66-.89.77-1.29.86v.69h6.26v-.76a3.08,3.08,0,0,1-.72-.12c-.51-.18-.52-.55-.52-1v-2.08a1.71,1.71,0,0,1,.19-.84.94.94,0,0,1,.87-.46,1,1,0,0,0-1-.72v-2.39a1,1,0,0,1,.53-1,2.22,2.22,0,0,1,.76-.1v-.81h-6.37Z" transform="translate(-21.12 -28.95)" fill="#f05123"/><path d="M152.67,112a.92.92,0,0,0-.22,1.83c-.13.39-.45,1.06-1.85,1.1a2,2,0,0,1-2.36-1.94c0-1.23.22-1.86,1.18-1.72,0-.27-.2-.77-1.16-.73a3.74,3.74,0,0,1,.45-2.43,1.74,1.74,0,0,1,1.11-.47c.46,0,1.79-.13,1.79,1.59h1.55v-2.86a20.39,20.39,0,0,1-2.6-.18c-.48,0-5.51-.73-6,3.93.39,0,1.6.08,1.78,1.09-.29-.55-2.22-1.18-2.83,0,.39,0,.83-.09,1.07.64a7.24,7.24,0,0,0,1.23,3.22,5.76,5.76,0,0,0,6.63.91,2.74,2.74,0,0,0,1.46-2.1c.1-.7.06-2-1.19-1.89" transform="translate(-21.12 -28.95)" fill="#f05123"/><path d="M181.08,112a.92.92,0,0,0-.22,1.83c-.13.39-.45,1.06-1.85,1.1a2,2,0,0,1-2.36-1.94c-.05-1.23.22-1.86,1.18-1.72,0-.27-.2-.77-1.16-.73a3.78,3.78,0,0,1,.44-2.43,1.78,1.78,0,0,1,1.12-.47c.46,0,1.79-.13,1.79,1.59h1.55v-2.86a20.39,20.39,0,0,1-2.6-.18c-.48,0-5.52-.73-6,3.93.39,0,1.6.08,1.77,1.09-.28-.55-2.21-1.18-2.82,0,.39,0,.83-.09,1.07.64a7.32,7.32,0,0,0,1.22,3.22,5.77,5.77,0,0,0,6.63.91,2.74,2.74,0,0,0,1.46-2.1c.1-.7.07-2-1.18-1.89" transform="translate(-21.12 -28.95)" fill="#f05123"/><path d="M200.45,111c-.24-.21-.79-.62.14-.91-.09-.29-.73-.57-1.69,0-.52-.23-1.22-.55-1.09-1.44s.91-.92,1.4-.92c.15,0,1.35,0,1.32,1.69h1.6v-3a7.49,7.49,0,0,1-2.24-.09c-1.39-.2-5.36-.58-5.57,2.23a3,3,0,0,0,1.43,2.9,1.88,1.88,0,0,1,2.23-.12c-.44-.09-2.64,0-1.65,1.44a1.51,1.51,0,0,1,1.8-.17,1.39,1.39,0,0,1,.46,1.59c-.32,1-1.8.95-2.38.54a1,1,0,0,0,.15-1.24,1.32,1.32,0,0,0-2.18.13,1.64,1.64,0,0,0,.23,2c.73.91,3.55,1.28,5.63.71s2.23-1.55,2.28-2.47-.57-1.92-1.87-2.86" transform="translate(-21.12 -28.95)" fill="#f05123"/><path d="M166.71,110.42c-.47,0-.55-.3-.55-.51v-1.79c0-.56.46-.5.63-.5s1.7,0,1.63,1.47-1.23,1.33-1.71,1.33m5.4,4.32c0-1.16-.22-3.4-2.13-3.72a2.12,2.12,0,0,0,2.22-2.34c0-1.61-1.24-2.45-3.33-2.45h-7.42V107c.45,0,1.29.09,1.29.76V110c.49,0,1.41.21,1.58,1-.44-.36-2.11-.84-2.78.25a1.25,1.25,0,0,1,1.15.76,1.16,1.16,0,0,1,.08.49v2.23c0,.27.17.86-1.29,1v.76h5.88v-.67c-.4-.09-1.22.1-1.22-1.28a16.74,16.74,0,0,1,0-2c0-.22.24-.54.9-.6s1.46.14,1.51,1.16.16,3.34.16,3.34h4.62v-.66c-.47-.07-1.24-.17-1.24-1.09" transform="translate(-21.12 -28.95)" fill="#f05123"/><path d="M193,110.45v-2.82c0-.18,0-.6.94-.72v-.71h-3.8v.71c.41,0,1.09.15,1.09.84v2.67c-.39,0-.92.18-.92.75.3.06.77.06.86.65s.5,2.74-1.36,2.86-2.5-.3-2.62-1.58.15-2.14,1.15-1.87c0-.36-.35-.8-1.09-.8V107.6c0-.21.17-.69,1.18-.69v-.73h-6.22v.7c.5,0,1.26.06,1.26.63V110c.65,0,1.36,0,1.74.95-.14-.45-2.62-1.1-2.89.21.56,0,1.07.09,1.15.83s.05,3.47,2.17,4.18a9.18,9.18,0,0,0,4.34.26c2-.32,2.51-1.1,2.79-2a7,7,0,0,0,.23-2.06c0-.54.26-1.37.88-1.25,0-.24-.09-.69-.88-.75" transform="translate(-21.12 -28.95)" fill="#f05123"/><path d="M136.1,116.64h.53v-4.13h-.53Zm0-6h.53V106.5h-.53Zm0-6h.53v-4.13h-.53Zm0-6h.53V94.48h-.53Z" transform="translate(-21.12 -28.95)" fill="#f05123"/><path d="M211,116.64h.53v-4.13H211Zm0-6h.53V106.5H211Zm0-6h.53v-4.13H211Zm0-6h.53V94.48H211Z" transform="translate(-21.12 -28.95)" fill="#f05123"/><polygon points="65.08 44.04 65.08 39.69 61.96 39.69 61.96 52.05 65.08 52.05 65.08 47.7 75.35 47.7 75.35 44.04 65.08 44.04" fill="#f05123"/><polygon points="75.35 23.88 75.35 20.22 61.96 20.22 61.96 23.88 67.06 23.88 67.06 29.18 61.96 29.18 61.96 32.83 75.35 32.83 75.35 29.18 70.17 29.18 70.17 23.88 75.35 23.88" fill="#f05123"/><polygon points="72.32 0.94 72.32 8.71 70.12 8.71 70.12 0.94 67.09 0.94 67.09 8.71 64.98 8.71 64.98 1.04 61.96 1.04 61.96 12.34 75.35 12.34 75.35 0.94 72.32 0.94" fill="#f05123"/><path d="M127.46,59.92c8.61-1.61,13.7-7.09,13.7-14.84v-.14a14.25,14.25,0,0,0-4-10.1c-3.37-3.31-8.48-5.07-14.79-5.07H101v51.4h5.52V60.58h14.57l15.13,20,.48.61h6.95Zm8.19-14.84v.13c0,6.19-5.31,10-13.86,10H106.56V35.11h15.7C130.64,35.11,135.65,38.84,135.65,45.08Z" transform="translate(-21.12 -28.95)" fill="#f05123"/><path d="M169.18,29c-14.56,0-25.54,11.3-25.54,26.29v.13c0,15,11,26.29,25.47,26.29s25.53-11.3,25.53-26.29v-.13C194.64,40.25,183.69,29,169.18,29Zm19.87,26.36v.13c0,11.92-8.51,20.91-19.81,20.91s-20-9.24-20-21v-.14c0-11.92,8.54-20.91,19.88-20.91C180.29,34.26,189.05,43.51,189.05,55.31Z" transform="translate(-21.12 -28.95)" fill="#f05123"/><polygon points="237.31 0.82 223.44 41.92 210.14 0.68 206.04 0.68 192.8 41.85 179.31 1.9 178.94 0.82 173.03 0.82 190.68 52.22 194.89 52.22 208.03 11.8 220.87 51.12 221.23 52.22 225.44 52.22 242.36 2.93 243.09 0.82 237.31 0.82" fill="#f05123"/><path d="M253.63,76.16h-1.87v-1h4.8v1h-1.88v5h-1.05Z" transform="translate(-21.12 -28.95)" fill="#f05123"/><path d="M257.72,75.2h1.1l1.8,2.8,1.8-2.8h1.11v5.92h-1V76.87l-1.87,2.79h0l-1.85-2.77v4.23h-1Z" transform="translate(-21.12 -28.95)" fill="#f05123"/></svg>